<?xml version="1.0" encoding="UTF-8"?>
<!-- Generator: Adobe Illustrator 22.0.0, SVG Export Plug-In . SVG Version: 6.00 Build 0)  -->
<svg version="1.1" id="Layer_1" xmlns="http://www.w3.org/2000/svg" xmlns:xlink="http://www.w3.org/1999/xlink" x="0px" y="0px" viewBox="0 0 396.9 354.3" style="enable-background:new 0 0 396.9 354.3;" xml:space="preserve">
<style type="text/css">
	.st0{fill:#CCCCFF;}
	.st1{font-family:sans-serif;}
	.st2{font-size:9.9626px;}
	.st3{fill:#CCCCCC;}
	.st4{fill:none;stroke:#000000;stroke-width:2.8347;stroke-miterlimit:10;}
	.st5{fill:none;stroke:#000000;stroke-width:0.7086;stroke-miterlimit:10;}
</style>
<circle class="st0" cx="14.2" cy="141.7" r="14.2"/>
<text transform="matrix(1 0 0 1 10.8499 145.1884)" class="st1 st2">A</text>
<circle class="st3" cx="70.9" cy="184.3" r="14.2"/>
<text transform="matrix(1 0 0 1 67.5439 187.7084)" class="st1 st2">B</text>
<ellipse transform="matrix(0.9871 -0.1602 0.1602 0.9871 -15.1598 10.3623)" class="st0" cx="56.7" cy="99.2" rx="14.2" ry="14.2"/>
<text transform="matrix(1 0 0 1 53.5099 102.6734)" class="st1 st2">C</text>
<ellipse transform="matrix(0.9571 -0.2898 0.2898 0.9571 -5.1728 21.7522)" class="st3" cx="70.9" cy="28.3" rx="14.2" ry="14.2"/>
<text transform="matrix(1 0 0 1 67.2699 31.8014)" class="st1 st2">D</text>
<ellipse transform="matrix(0.8507 -0.5257 0.5257 0.8507 22.1852 106.4358)" class="st3" cx="198.4" cy="14.2" rx="14.2" ry="14.2"/>
<text transform="matrix(1 0 0 1 195.4529 17.6134)" class="st1 st2">E</text>
<circle class="st0" cx="127.6" cy="99.2" r="14.2"/>
<text transform="matrix(1 0 0 1 124.7259 102.6534)" class="st1 st2">F</text>
<circle class="st3" cx="141.7" cy="184.3" r="14.2"/>
<text transform="matrix(1 0 0 1 138.4109 187.7134)" class="st1 st2">G</text>
<circle class="st3" cx="155.9" cy="240.9" r="14.2"/>
<text transform="matrix(1 0 0 1 152.3799 244.4024)" class="st1 st2">H</text>
<circle class="st3" cx="198.4" cy="297.6" r="14.2"/>
<text transform="matrix(1 0 0 1 197.0419 301.0964)" class="st1 st2">I</text>
<circle class="st3" cx="212.6" cy="184.3" r="14.2"/>
<text transform="matrix(1 0 0 1 210.2488 187.5994)" class="st1 st2">J</text>
<circle class="st0" cx="201.3" cy="113.4" r="14.2"/>
<text transform="matrix(1 0 0 1 197.8049 116.8414)" class="st1 st2">K</text>
<ellipse transform="matrix(0.9732 -0.2298 0.2298 0.9732 -9.0773 63.7668)" class="st0" cx="269.3" cy="70.9" rx="14.2" ry="14.2"/>
<text transform="matrix(1 0 0 1 266.5939 74.3214)" class="st1 st2">L</text>
<ellipse transform="matrix(0.9871 -0.1602 0.1602 0.9871 -18.8595 49.5069)" class="st3" cx="297.6" cy="141.7" rx="14.2" ry="14.2"/>
<text transform="matrix(1 0 0 1 293.2819 145.1884)" class="st1 st2">M</text>
<circle class="st3" cx="326" cy="198.4" r="14.2"/>
<text transform="matrix(1 0 0 1 322.4608 201.8824)" class="st1 st2">N</text>
<circle class="st3" cx="326" cy="340.2" r="14.2"/>
<text transform="matrix(1 0 0 1 322.3218 343.6164)" class="st1 st2">O</text>
<circle class="st3" cx="382.7" cy="198.4" r="14.2"/>
<text transform="matrix(1 0 0 1 379.4979 201.8824)" class="st1 st2">P</text>
<circle class="st0" cx="354.3" cy="56.7" r="14.2"/>
<text transform="matrix(1 0 0 1 350.6678 59.6354)" class="st1 st2">Q</text>
<line class="st4" x1="24.3" y1="131.6" x2="46.5" y2="109.4"/>
<line class="st4" x1="71.1" y1="99.2" x2="113.2" y2="99.2"/>
<line class="st4" x1="141.7" y1="101.9" x2="187.1" y2="110.7"/>
<line class="st4" x1="213.5" y1="105.7" x2="257.1" y2="78.5"/>
<line class="st4" x1="283.5" y1="68.5" x2="340.1" y2="59.1"/>
<line class="st5" x1="25.7" y1="150.4" x2="59.4" y2="175.6"/>
<line class="st5" x1="85.2" y1="184.3" x2="127.4" y2="184.3"/>
<line class="st5" x1="139.4" y1="170.1" x2="129.9" y2="113.4"/>
<line class="st5" x1="145.2" y1="198.2" x2="152.4" y2="227"/>
<line class="st5" x1="156.1" y1="184.3" x2="198.2" y2="184.3"/>
<line class="st5" x1="210.3" y1="170" x2="203.5" y2="127.6"/>
<line class="st5" x1="225.5" y1="177.8" x2="284.8" y2="148.2"/>
<line class="st5" x1="226.9" y1="186" x2="311.7" y2="196.6"/>
<line class="st5" x1="292.3" y1="128.3" x2="274.7" y2="84.3"/>
<line class="st5" x1="304.1" y1="154.6" x2="319.6" y2="185.6"/>
<line class="st5" x1="340.4" y1="198.4" x2="368.3" y2="198.4"/>
<line class="st5" x1="379.9" y1="184.3" x2="357.2" y2="70.8"/>
<line class="st5" x1="377.3" y1="211.8" x2="331.3" y2="326.8"/>
<line class="st5" x1="164.6" y1="252.5" x2="189.8" y2="286.1"/>
<line class="st5" x1="209.8" y1="288.8" x2="314.6" y2="207.3"/>
<line class="st5" x1="212.1" y1="302.2" x2="312.3" y2="335.6"/>
<line class="st5" x1="68" y1="42.5" x2="59.5" y2="85.1"/>
<line class="st5" x1="85.2" y1="26.8" x2="184.1" y2="15.8"/>
<line class="st5" x1="198.8" y1="28.5" x2="200.9" y2="99"/>
<line class="st5" x1="212.3" y1="18" x2="340.5" y2="52.9"/>
</svg>